<svg xmlns="http://www.w3.org/2000/svg" xmlns:xlink="http://www.w3.org/1999/xlink" id="Capa_1" x="0" y="0" enable-background="new 0 0 612.001 612.001" version="1.1" viewBox="0 0 612.001 612.001" xml:space="preserve"><g><g><path fill="#1E42D5" d="M376.924,57.709l-198.438,353.1l67.533,0.192l134.098-233.178l231.884,412.437v-88.14c0-6.784-1.691-13.461-4.922-19.426 L376.924,57.709z"/><path fill="#1E42D5" d="M414.796,493.566l-29.716-49.345l-164.13-0.001l-97.789,0.001L357.477,21.77l-51.575-0.03 c-7.266-0.004-13.985,3.857-17.64,10.137L19.788,493.19L414.796,493.566z"/><path fill="#1E42D5" d="M0,569.865c0,11.265,9.131,20.396,20.396,20.396h551.152L379.666,248.074l-33.991,58.874l76.609,132.6l53.702,88.324H0 V569.865z"/></g></g></svg>