<svg xmlns="http://www.w3.org/2000/svg" width="512" height="383.466" viewBox="0 0 512 383.466"><g transform="translate(-236 -262)"><path d="M464.883,64.267H47.117a47.133,47.133,0,0,0,0,94.266H464.883a47.133,47.133,0,0,0,0-94.266Z" transform="translate(236 197.733)" fill=" #1E42D5"/><path d="M464.883,208.867H47.117a47.133,47.133,0,0,0,0,94.266H464.883a47.133,47.133,0,0,0,0-94.266Z" transform="translate(236 197.733)" fill=" #1E42D5"/><path d="M464.883,353.467H47.117a47.133,47.133,0,0,0,0,94.266H464.883a47.133,47.133,0,0,0,0-94.266Z" transform="translate(236 197.733)" fill=" #1E42D5"/></g></svg>