<svg xmlns="http://www.w3.org/2000/svg" xmlns:xlink="http://www.w3.org/1999/xlink" id="Vector" x="0" y="0" enable-background="new 204 13 1200 1200" version="1.1" viewBox="204 13 1200 1200" xml:space="preserve"><style type="text/css">.st0{fill:#bfcee1}.st1{fill:#04099c}.st2{fill:#de8e68}.st3{fill:#1e42ac}.st4{fill:#1e42d5}.st5{fill:#4582b3}.st6{fill:#5babea}.st7{fill:#63baff}.st8{fill:#a3bbe1}.st9{fill:#f9f9f9}.st10{fill:#fff}.st11{fill:#d37c59}</style><title>Artboard 1</title><rect width="480.2" height="697.6" x="798.8" y="102.2" class="st0"/><rect width="143.8" height="170.9" x="311" y="954.6" class="st1"/><rect width="143.8" height="300.3" x="496.8" y="825.3" class="st1"/><rect width="143.8" height="449" x="682.6" y="676.6" class="st1"/><rect width="16.7" height="12.2" x="549.7" y="838.1" class="st2"/><rect width="16.7" height="12.2" x="732.9" y="679.8" class="st2"/><path d="M663.2,489.9c10,0,90.2,11.3,125.3,29.4c-4.8,23.5-36.4,162-36.4,162h-19.7c0,0-7.4-116.6-9-115.6	c-10.6,5.5-52.8,19.3-97.9,19.9" class="st3"/><polyline points="663.2 489.9 567 839.7 549.7 839.7 549.7 489.9" class="st4"/><path d="M681,342.9c4.8,2.1,21.5,16,24.4,21c27.1-33.8,71.9-67.9,75.6-71.8s4.8-25.9,4.8-30.7s6.6-17.6,13-17.6v57.5	c0,0-74.9,105.1-87.2,105.1c-8,0-47.5-17.4-53-22.6" class="st2"/><path d="M620,323.5c9.9-16,67,8.8,67,16.4s-21.2,42.9-30.7,42.4C648.8,382,609.8,340.2,620,323.5z" class="st5"/><path d="M606.1,300.3c72.6,0,68.5,180.7,57.1,189.6s-105.5,13.1-114.1,0S537.1,300.3,606.1,300.3z" class="st6"/><path d="M527.6,357.4c-12.9,4-46,66.6-46,76.1c0,20,67.5,108.1,76.1,108.1c3.6-6.2,9.3-19.1,9.3-19.1	s-40.6-75.6-48-85.4c6.4-6,29.8-37.5,33.6-47.2s2.4-30.8,2.4-30.8L527.6,357.4z" class="st2"/><path d="M573.9,319.7c16.5,9-5.3,67.3-12.9,67.8s-43.9-18.9-43.9-28.4C517.1,351.4,556.8,310.3,573.9,319.7z" class="st7"/><polygon points="549.7 847.7 549.7 862.5 594.3 862.5 594.3 857.2 567.2 847.7"/><polygon points="732.2 690.7 732.2 705.5 776.8 705.5 776.8 700.1 749.7 690.7"/><rect width="480.2" height="44.9" x="798.8" y="102.2" class="st8"/><rect width="403.3" height="114.9" x="909.7" y="203.7" class="st8"/><rect width="360.6" height="10.4" x="933.3" y="226" class="st9"/><rect width="360.6" height="10.4" x="933.3" y="250.8" class="st9"/><rect width="360.6" height="10.4" x="933.3" y="275.6" class="st9"/><rect width="403.3" height="114.9" x="909.7" y="364.8" class="st8"/><circle cx="963.4" cy="422.3" r="34.2" class="st9"/><rect width="262.5" height="33.1" x="1022.9" y="388.1" class="st9"/><rect width="262.5" height="12.2" x="1022.9" y="432.4" class="st9"/><rect width="378.8" height="186.4" x="845.7" y="529.6" class="st10"/><path d="M624.1,264.8h-28.8v40.8c0,10.1,28.8,10.3,28.8,0V264.8z" class="st11"/><path d="M645.2,246.1c-5.1-21.7-21.2-36.4-35.9-33c-12.7,3-20.3,18.3-19,36.3c-5,1.4-7.9,6.7-6.4,11.7	c1.2,4,4.8,6.8,9,6.8c0.6,0,1.2-0.1,1.7-0.2c6.9,16.5,20.4,26.8,33,23.9C642.3,288.1,650.2,267.7,645.2,246.1z" class="st2"/><path d="M597.5,256.2c3.8,0,4.4-5.2,4.4-9.9c0-6.2,5.9-11.8,9.5-12.9c6.6-1.9,9.9-2.3,13.9-4.5s8.7-5.4,8.7-5.4	c1.8,2.1,3.4,4.4,4.8,6.7c3.6-1,22.8-5.6,22.8-19.3c0-9-7.6-10.2-11-13c-3.7-3-2.1-12.1-12-12.1c-8.9,0-13.3,9.3-18.9,12.9	c-6.9,4.4-20.4,0.9-29.2,10c-4.3,4.4-5.3,15.4-8,19.4c-3.7,5.4-10,7-10,15.3c0,6.1,5.1,16.3,11.4,17.8c0-6,2.2-11.7,6.6-11.7	C595.3,249.6,592,256.2,597.5,256.2z"/></svg>